# xmcd
#
# Track frame offsets: 
#        150
#        15456
#        28358
#        46270
#        57406
#        72757
#        89342
#        104741
#        119692
#        136637
#        151866
#        168505
#        182660
#        197248
#        215436
#
# Disc length: 3060 seconds
#
# Revision: 7
# Processed by: cddbd v1.5.2PL0 Copyright (c) Steve Scherf et al.
# Submitted via: ExactAudioCopy v0.99pb5
#
DISCID=d40bf20f
DTITLE=Various Artist - Classic Country - TL 626-26 - 1986 - 1988 - CD 2
DYEAR=2001
DGENRE=Country
TTITLE0=Kathy Mattea - Eighteen wheels and a dozen roses
TTITLE1=Dwight Yoakam with Buck Owens - Streets of Bakersfield
TTITLE2=Oak Ridge Boys - It takes a little rain
TTITLE3=Vern Gosdin - Set 'em up Joe
TTITLE4=Earl Thomas Conley - Nobody falls like a fool
TTITLE5=Michael Johnson - Give me wings
TTITLE6=John Schneider - What's a memory like you (doing in a love lik
TTITLE6=e this)
TTITLE7=Rodney Crowell - I couldn't leave you if I tried
TTITLE8=Highway 101 - (Do you love me) just say yes
TTITLE9=Ricky Van Shelton - Somebody lied
TTITLE10=Eddy Raven - Joe knows how to live
TTITLE11=Desert Rose Band - He's back and I'm blue
TTITLE12=Eddie Rabbitt - I wanna dance with you
TTITLE13=Statler Brothers - Too much on my heart
TTITLE14=Randy Travis - On the other hand
EXTD=
EXTT0=
EXTT1=
EXTT2=
EXTT3=
EXTT4=
EXTT5=
EXTT6=
EXTT7=
EXTT8=
EXTT9=
EXTT10=
EXTT11=
EXTT12=
EXTT13=
EXTT14=
PLAYORDER=
